<svg width="101" height="74" viewBox="0 0 101 74" fill="none" xmlns="http://www.w3.org/2000/svg">
<path d="M85.3431 66.044C85.3463 63.2757 83.1048 61.029 80.3365 61.0258C77.5682 61.0226 75.3215 63.2642 75.3183 66.0324C75.3151 68.8007 77.5566 71.0475 80.3249 71.0506C83.0932 71.0538 85.3399 68.8123 85.3431 66.044Z" fill="white"/>
<path d="M85.411 7.13188C85.4142 4.36359 83.1726 2.11686 80.4043 2.11367C77.6361 2.11049 75.3893 4.35205 75.3861 7.12034C75.383 9.88863 77.6245 12.1353 80.3928 12.1385C83.1611 12.1417 85.4078 9.90017 85.411 7.13188Z" fill="white"/>
<path d="M78.4684 53.2887L78.4614 59.4357C75.5726 60.2574 73.445 62.8953 73.4413 66.0513C73.437 69.8467 76.5275 72.9237 80.3023 72.928C84.0977 72.9324 87.1747 69.8419 87.1791 66.0671C87.1827 62.9317 85.0611 60.2684 82.1743 59.4399L82.1814 53.293C82.1861 49.1676 78.8277 45.8014 74.7023 45.7967L63.2335 45.7835C62.2021 45.7823 61.3554 46.627 61.3543 47.6584C61.3531 48.6898 62.1978 49.5365 63.2292 49.5377L74.698 49.5509C76.7813 49.5326 78.4708 51.2054 78.4684 53.2887ZM83.4662 66.0422C83.4642 67.7749 82.0599 69.1759 80.3272 69.1739C78.5946 69.1719 77.1935 67.7676 77.1955 66.035C77.1975 64.3023 78.6018 62.9012 80.3345 62.9032C82.0465 62.9052 83.4682 64.3301 83.4662 66.0422Z" fill="#875EF8"/>
<path d="M61.4206 25.4842C61.4194 26.5156 62.2642 27.3623 63.2955 27.3634L74.7643 27.3766C78.8898 27.3814 82.2559 24.023 82.2606 19.8976L82.2677 13.7506C85.1565 12.9289 87.2841 10.291 87.2878 7.13505C87.2921 3.33963 84.2016 0.262597 80.4268 0.258251C76.6314 0.253882 73.5543 3.34444 73.55 7.11923C73.5464 10.2546 75.6679 12.9179 78.5548 13.7464L78.5477 19.8727C78.5454 21.9354 76.852 23.6249 74.7893 23.6225L63.3205 23.6093C62.2479 23.6081 61.4218 24.4528 61.4206 25.4842ZM77.2423 7.12348C77.2443 5.39079 78.6485 3.98975 80.3812 3.99174C82.1139 3.99374 83.515 5.39801 83.513 7.1307C83.511 8.8634 82.1067 10.2644 80.374 10.2624C78.6619 10.2605 77.2403 8.83555 77.2423 7.12348Z" fill="#875EF8"/>
<path d="M98.9706 36.6026C98.9738 33.8343 96.7322 31.5876 93.9639 31.5844C91.1956 31.5812 88.9489 33.8227 88.9457 36.591C88.9425 39.3593 91.1841 41.6061 93.9524 41.6092C96.7207 41.6124 98.9674 39.3709 98.9706 36.6026Z" fill="white"/>
<path d="M0.0443818 34.4476C0.0356432 42.0384 4.17363 49.0771 10.7082 52.7975C10.5423 53.5605 10.4795 54.3237 10.4786 55.1281C10.4714 61.4401 15.6016 66.6028 21.9342 66.6101C22.7799 66.6111 23.6051 66.5295 24.4304 66.3448C27.3547 70.4943 32.1992 73.037 37.356 73.043C45.9782 73.0529 53.6595 66.1516 54.1227 57.9631C54.1228 57.9218 54.1228 57.9012 54.1229 57.8599L54.1698 17.0592C54.1699 17.0179 54.1699 16.9767 54.17 16.9354C53.5208 7.46672 45.4022 0.0521706 35.728 0.0410336C27.2708 0.0312976 19.7764 5.79832 17.7459 13.6756C7.5748 15.2728 0.0564212 23.9895 0.0443818 34.4476ZM35.7237 3.75394C43.3145 3.76268 49.9084 9.7522 50.4362 17.0961L50.3894 57.7938C50.0109 64.0434 44.0435 69.3171 37.3603 69.3094C33.0286 69.3044 28.9883 66.9689 26.8267 63.2329C26.3738 62.4485 25.4048 62.0967 24.5587 62.4258C23.7332 62.7342 22.8461 62.8776 21.9179 62.8765C17.648 62.8716 14.1866 59.4023 14.1915 55.1324C14.1926 54.2248 14.3586 53.338 14.6484 52.4926C14.9795 51.5854 14.5681 50.5742 13.7022 50.14C7.66171 47.2865 3.77025 41.1145 3.77794 34.4312C3.7883 25.4377 10.5213 18.0197 19.4539 17.1842C20.2997 17.1027 20.9812 16.464 21.1265 15.6391C22.2894 8.87468 28.566 3.7457 35.7237 3.75394Z" fill="#875EF8"/>
<path d="M61.4078 36.5598C61.4066 37.5912 62.2514 38.4379 63.2828 38.4391L87.3548 38.4668C88.156 41.2937 90.732 43.4006 93.7847 43.4866C95.6205 43.53 97.3746 42.8513 98.6962 41.5946C100.018 40.3378 100.783 38.6266 100.826 36.7909L100.827 36.6258C100.831 32.9336 97.8228 29.836 94.1306 29.7492C92.2948 29.7059 90.5407 30.3846 89.2191 31.6413C88.3105 32.5066 87.6698 33.5785 87.3384 34.7539L63.2664 34.7261C62.2351 34.6837 61.409 35.5285 61.4078 36.5598ZM94.0438 33.4621C95.7352 33.5053 97.095 34.9095 97.093 36.6009L97.0929 36.6834C97.0713 37.5291 96.7198 38.2919 96.1209 38.8688C95.5221 39.4457 94.7173 39.7542 93.8716 39.7326C92.1802 39.6894 90.8204 38.2851 90.8223 36.5937L90.8224 36.5112C90.844 35.6655 91.1956 34.9027 91.7944 34.3258C92.3933 33.7489 93.1981 33.4405 94.0438 33.4621Z" fill="#875EF8"/>
</svg>
