<svg width="468" height="81" viewBox="0 0 468 81" fill="none" xmlns="http://www.w3.org/2000/svg">
<path d="M0 11.3906H467.939" stroke="black" stroke-width="2"/>
<g clip-path="url(#clip0_813_44)">
<path d="M25.3555 37.9687V55.0547H38.7799L34.9444 47.4609C34.9444 45.364 36.6616 43.6641 38.7799 43.6641C40.8983 43.6641 42.6155 45.364 42.6155 47.4609L38.7799 55.0547H52.2044V37.9687L38.7799 26.5781L25.3555 37.9687Z" fill="black"/>
</g>
<g clip-path="url(#clip1_813_44)">
<path fill-rule="evenodd" clip-rule="evenodd" d="M135.863 51.7205C129.329 51.7205 124.032 46.5687 124.032 40.2034C124.032 33.8381 129.329 28.6759 135.863 28.6759C142.397 28.6759 147.695 33.8381 147.695 40.2034C147.695 46.5687 142.397 51.7205 135.863 51.7205ZM152.565 55.6875L146.219 49.3246C148.465 46.908 149.845 43.7202 149.845 40.2034C149.845 32.6761 143.585 26.5781 135.863 26.5781C128.141 26.5781 121.881 32.6761 121.881 40.2034C121.881 47.7204 128.141 53.8183 135.863 53.8183C139.2 53.8183 142.26 52.6769 144.664 50.7745L151.287 56.9531C151.708 57.3645 152.146 57.3645 152.565 56.9531C152.986 56.5521 152.986 56.0988 152.565 55.6875Z" fill="black"/>
</g>
<path d="M219.055 40.5C219.055 27.9931 221.763 25.3125 234.397 25.3125C247.031 25.3125 249.739 27.9931 249.739 40.5C249.739 53.0069 247.031 55.6875 234.397 55.6875C221.763 55.6875 219.055 53.0069 219.055 40.5Z" stroke="black" stroke-width="2.66667"/>
<path d="M234.406 47.2607V47.2417" stroke="black" stroke-width="2.66667" stroke-linecap="round" stroke-linejoin="round"/>
<path d="M234.406 40.5107V40.4917" stroke="black" stroke-width="2.66667" stroke-linecap="round" stroke-linejoin="round"/>
<path d="M234.406 33.7607V33.7417" stroke="black" stroke-width="2.66667" stroke-linecap="round" stroke-linejoin="round"/>
<line x1="233.84" y1="33.6406" x2="233.84" y2="47.3594" stroke="black" stroke-width="4" stroke-linecap="round"/>
<line x1="227.447" y1="41.0312" x2="241.347" y2="41.0312" stroke="black" stroke-width="4" stroke-linecap="round"/>
<path d="M340.552 26.5781C342.683 26.5781 346.945 27.7172 346.945 32.2734C346.945 33.2776 346.945 34.587 346.945 36.0703M340.552 26.5781L334.402 36.1016M340.552 26.5781H330.324M316.261 36.1468C316.261 40.5218 316.261 46.5075 316.26 50.625C315.749 56.1938 320.309 57.1641 322.653 56.9531C326.275 56.9531 334.927 56.9531 340.552 56.9531C346.178 57.4594 347.158 54.2109 346.945 52.5234C346.945 48.7411 346.945 41.3176 346.945 36.0703M316.261 36.1468C316.261 34.6048 316.261 33.2629 316.261 32.2734C316.26 30.375 317.411 26.5781 322.014 26.5781H330.324M316.261 36.1468L323.932 36.1277M346.945 36.0703L334.402 36.1016M334.402 36.1016L323.932 36.1277M323.932 36.1277L330.324 26.5781M329.046 41.1328V49.9922L336.717 45.5625L329.046 40.5V41.1328Z" stroke="black" stroke-width="1.5"/>
<path d="M421.698 26.3125C429.982 26.3125 436.68 32.9573 436.68 41.1328C436.68 49.3083 429.982 55.9531 421.698 55.9531C413.415 55.9531 406.717 49.3083 406.717 41.1328C406.717 32.9573 413.415 26.3125 421.698 26.3125Z" stroke="black" stroke-width="2"/>
<path d="M426.323 36.1433C426.323 38.6303 424.286 40.6465 421.774 40.6465C419.261 40.6465 417.225 38.6303 417.225 36.1433C417.225 33.6563 419.261 31.6401 421.774 31.6401C424.286 31.6401 426.323 33.6563 426.323 36.1433Z" stroke="black" stroke-width="2" stroke-linecap="round" stroke-linejoin="round"/>
<path d="M421.349 44.0239C416.953 44.0239 413.389 47.5522 413.389 51.9045H429.31C429.31 47.5522 425.746 44.0239 421.349 44.0239Z" stroke="black" stroke-width="2" stroke-linecap="round" stroke-linejoin="round"/>
<defs>
<clipPath id="clip0_813_44">
<rect width="30.6845" height="30.375" fill="white" transform="translate(23.4375 26.5781)"/>
</clipPath>
<clipPath id="clip1_813_44">
<rect width="33.2415" height="32.9062" fill="white" transform="translate(121.881 26.5781)"/>
</clipPath>
</defs>
</svg>
