<svg width="90" height="90" viewBox="0 0 90 90" fill="none" xmlns="http://www.w3.org/2000/svg">
<g clip-path="url(#clip0_561_190)">
<path d="M68.226 44.9992C68.226 32.1931 57.8064 21.7734 45.0002 21.7734C32.1941 21.7734 21.7744 32.1931 21.7744 44.9992C21.7744 57.8054 32.1941 68.2251 45.0002 68.2251C57.8064 68.2251 68.226 57.8054 68.226 44.9992ZM39.9254 25.3444C38.0455 27.1778 35.9422 29.8081 34.3584 33.3297C32.3393 32.7201 30.8136 32.0494 29.8149 31.5413C32.4583 28.5612 35.9552 26.3707 39.9254 25.3444ZM28.0091 33.8813C29.0963 34.4736 30.8818 35.3112 33.3118 36.0588C32.602 38.2623 32.1302 40.7547 32.0025 43.5476H24.7517C25.0043 39.9984 26.1612 36.6975 28.0091 33.8813ZM28.0091 56.1157C26.1597 53.2996 25.0043 50.0001 24.7517 46.4494H32.0025V46.4509C32.1302 49.2438 32.602 51.7362 33.3118 53.9383C30.8818 54.6859 29.0963 55.5234 28.0091 56.1157ZM29.8091 58.4528C30.8034 57.9418 32.3276 57.2697 34.3526 56.6601C35.9378 60.186 38.0426 62.8192 39.9239 64.6541C35.9523 63.6278 32.4539 61.4344 29.8091 58.4528ZM43.5486 64.0023C41.7152 62.5304 39.098 59.9233 37.2051 55.9415C39.0486 55.5597 41.1636 55.2781 43.5486 55.1939V64.0023ZM43.5486 52.2921C40.7383 52.385 38.2589 52.7291 36.128 53.1994C35.4747 51.2209 35.032 48.9767 34.9043 46.4509H43.5486V52.2921ZM43.5486 43.5476H34.9043C35.032 41.0218 35.4747 38.7776 36.128 36.7991C38.2589 37.2694 40.7383 37.6149 43.5486 37.7063V43.5476ZM43.5486 34.8031C41.1694 34.7175 39.0544 34.4344 37.208 34.0497C39.1009 30.0709 41.7167 27.4667 43.5486 25.9947V34.8031ZM61.9914 56.1171C60.9041 55.5249 59.1186 54.6873 56.6886 53.9397C57.3984 51.7362 57.8702 49.2438 57.998 46.4509H65.2488C64.9962 50.0001 63.8393 53.301 61.9914 56.1171ZM61.9914 33.8828C63.8407 36.6989 64.9962 39.9984 65.2488 43.5491H57.998V43.5476C57.8702 40.7547 57.3984 38.2623 56.6886 36.0602C59.1186 35.3126 60.9041 34.475 61.9914 33.8828ZM60.1914 31.5457C59.197 32.0567 57.6728 32.7288 55.6478 33.3384C54.0626 29.8125 51.9578 27.1792 50.0765 25.3444C54.0481 26.3707 57.5465 28.5641 60.1914 31.5457ZM46.4518 25.9962C48.2852 27.4681 50.9025 30.0752 52.7954 34.057C50.9518 34.4388 48.8368 34.7204 46.4518 34.8046V25.9962ZM46.4518 37.7063C49.2622 37.6134 51.7415 37.2694 53.8725 36.7991C54.5257 38.7776 54.9684 41.0218 55.0962 43.5476H46.4518V37.7063ZM46.4518 46.4509H55.0962C54.9684 48.9767 54.5257 51.2209 53.8725 53.1994C51.7415 52.7291 49.2622 52.3836 46.4518 52.2921V46.4509ZM46.4518 64.0038V55.1954C48.831 55.281 50.946 55.5641 52.7925 55.9488C50.8996 59.9276 48.2838 62.5318 46.4518 64.0038ZM50.0751 64.6541C51.9549 62.8207 54.0583 60.1904 55.642 56.6688C57.6612 57.2784 59.1868 57.9491 60.1855 58.4571C57.5422 61.4373 54.0452 63.6278 50.0751 64.6541Z" fill="#FF5103"/>
<path d="M51.4028 82.1984L51.8935 85.0595C52.8109 84.9027 53.7182 84.714 54.6124 84.4963L53.9257 81.6758C53.0969 81.8776 52.2549 82.0517 51.4028 82.1984Z" fill="#FF5103"/>
<path d="M30.0747 82.8079C30.9384 83.149 31.8181 83.4641 32.6905 83.7413L33.5687 80.9745C32.7486 80.7132 31.9386 80.4244 31.1431 80.1094L30.0747 82.8079Z" fill="#FF5103"/>
<path d="M35.3599 84.4904C36.2541 84.7081 37.1599 84.8969 38.0773 85.0565L38.5737 82.1954C37.7216 82.0473 36.8812 81.8731 36.0523 81.6699L35.3599 84.4904Z" fill="#FF5103"/>
<path d="M46.2773 82.7196L46.3732 85.6199C47.3051 85.5895 48.2254 85.527 49.1399 85.4356L48.8511 82.5469C48.0019 82.6325 47.144 82.6906 46.2773 82.7196Z" fill="#FF5103"/>
<path d="M56.4082 80.9809L57.2864 83.7477C58.169 83.4675 59.0501 83.154 59.9022 82.8157L58.8338 80.1172C58.0384 80.4322 57.2298 80.7196 56.4082 80.9809Z" fill="#FF5103"/>
<path d="M40.8296 85.4336C41.7456 85.5265 42.6688 85.5904 43.5993 85.6209L43.6951 82.7206C42.8314 82.6901 41.9735 82.632 41.1257 82.5449L40.8296 85.4336Z" fill="#FF5103"/>
<path d="M4.56375 49.1419L7.45246 48.853C7.36681 48.0038 7.30875 47.1445 7.27972 46.2793L4.37939 46.3751C4.40843 47.3056 4.4723 48.2274 4.56375 49.1419Z" fill="#FF5103"/>
<path d="M7.19266 30.0742C6.85154 30.9379 6.53654 31.8176 6.25928 32.69L9.02605 33.5683C9.28734 32.7481 9.57621 31.9381 9.89121 31.1426L7.19266 30.0742Z" fill="#FF5103"/>
<path d="M8.32365 53.9252C8.12043 53.0964 7.94623 52.2544 7.80107 51.4023L4.93994 51.893C5.09672 52.8104 5.28542 53.7177 5.50317 54.6119L8.32365 53.9252Z" fill="#FF5103"/>
<path d="M9.88244 58.8338C9.56744 58.0384 9.28002 57.2298 9.01873 56.4082L6.25195 57.2864C6.53211 58.169 6.84566 59.0501 7.18389 59.9022L9.88244 58.8338Z" fill="#FF5103"/>
<path d="M4.37939 43.5993L7.27972 43.6951C7.3102 42.8314 7.36827 41.9734 7.45536 41.1257L4.56665 40.8281C4.4723 41.7455 4.40843 42.6688 4.37939 43.5993Z" fill="#FF5103"/>
<path d="M8.32948 36.0518L5.509 35.3594C5.29126 36.2536 5.10255 37.1594 4.94287 38.0768L7.804 38.5732C7.95206 37.7212 8.12626 36.8807 8.32948 36.0518Z" fill="#FF5103"/>
<path d="M43.7224 7.27923L43.6266 4.37891C42.6947 4.40939 41.7744 4.47181 40.8599 4.56326L41.1487 7.45197C41.9979 7.36633 42.8558 7.30826 43.7224 7.27923Z" fill="#FF5103"/>
<path d="M49.1707 4.56616C48.2547 4.47326 47.3315 4.40939 46.401 4.37891L46.3052 7.27923C47.1689 7.30971 48.0268 7.36778 48.8745 7.45487L49.1707 4.56616Z" fill="#FF5103"/>
<path d="M38.5967 7.80058L38.1061 4.93945C37.1887 5.09623 36.2814 5.28494 35.3872 5.50268L36.0738 8.32316C36.9027 8.12139 37.7446 7.9472 38.5967 7.80058Z" fill="#FF5103"/>
<path d="M54.6401 5.50949C53.7459 5.29175 52.8401 5.10304 51.9227 4.94336L51.4263 7.80449C52.2784 7.95255 53.1189 8.12675 53.9477 8.32997L54.6401 5.50949Z" fill="#FF5103"/>
<path d="M59.9257 7.19315C59.062 6.85202 58.1823 6.53702 57.3099 6.25977L56.4316 9.02654C57.2518 9.28783 58.0618 9.5767 58.8573 9.8917L59.9257 7.19315Z" fill="#FF5103"/>
<path d="M33.5917 9.01873L32.7134 6.25195C31.8294 6.53211 30.9483 6.84566 30.0962 7.18244L31.1646 9.88099C31.9615 9.56744 32.7701 9.28002 33.5917 9.01873Z" fill="#FF5103"/>
<path d="M82.8074 59.9257C83.1486 59.062 83.4636 58.1823 83.7408 57.3099L80.974 56.4316C80.7128 57.2518 80.4239 58.0618 80.1089 58.8573L82.8074 59.9257Z" fill="#FF5103"/>
<path d="M80.1172 31.166C80.4322 31.9615 80.7196 32.7701 80.9809 33.5917L83.7477 32.7135C83.4675 31.8309 83.154 30.9498 82.8157 30.0977L80.1172 31.166Z" fill="#FF5103"/>
<path d="M85.06 38.1056C84.9032 37.1882 84.7145 36.2809 84.4968 35.3867L81.6763 36.0733C81.8795 36.9022 82.0537 37.7441 82.1989 38.5962L85.06 38.1056Z" fill="#FF5103"/>
<path d="M85.057 51.9222L82.1959 51.4258C82.0478 52.2779 81.8736 53.1184 81.6704 53.9472L84.4909 54.6397C84.7086 53.744 84.8973 52.8382 85.057 51.9222Z" fill="#FF5103"/>
<path d="M85.4361 40.8594L82.5474 41.1482C82.633 41.9974 82.6911 42.8568 82.7201 43.722L85.6204 43.6261C85.5914 42.6957 85.5275 41.7739 85.4361 40.8594Z" fill="#FF5103"/>
<path d="M85.6204 46.4005L82.7201 46.3047C82.6896 47.1684 82.6315 48.0263 82.5444 48.874L85.4331 49.1716C85.5275 48.2542 85.5914 47.331 85.6204 46.4005Z" fill="#FF5103"/>
<path d="M75.4839 29.0323C83.4881 29.0323 90 22.5203 90 14.5161C90 6.51194 83.4881 0 75.4839 0C67.4797 0 60.9678 6.51194 60.9678 14.5161C60.9678 22.5203 67.4797 29.0323 75.4839 29.0323ZM79.8387 25.274C78.4931 25.8213 77.0241 26.129 75.4839 26.129C73.9437 26.129 72.4747 25.8213 71.1291 25.274V21.7742C71.1291 19.3732 73.0829 17.4194 75.4839 17.4194C77.8849 17.4194 79.8387 19.3732 79.8387 21.7742V25.274ZM78.3871 8.70968C78.3871 10.3108 77.085 11.6129 75.4839 11.6129C73.8828 11.6129 72.5807 10.3108 72.5807 8.70968C72.5807 7.10855 73.8828 5.80645 75.4839 5.80645C77.085 5.80645 78.3871 7.10855 78.3871 8.70968ZM75.1854 2.91085C72.1214 3.06671 69.6775 5.60758 69.6775 8.70968C69.6775 11.9119 72.2816 14.5161 75.4839 14.5161C78.6862 14.5161 81.2904 11.9119 81.2904 8.70968C81.2904 5.60758 78.8464 3.06671 75.7824 2.91085C82.0477 3.07016 87.0968 8.21323 87.0968 14.5161C87.0968 18.1742 85.3926 21.4374 82.742 23.5669V21.7742C82.742 17.7721 79.486 14.5161 75.4839 14.5161C71.4818 14.5161 68.2258 17.7721 68.2258 21.7742V23.5669C65.5752 21.436 63.871 18.1742 63.871 14.5161C63.871 8.21323 68.9201 3.07016 75.1854 2.91085Z" fill="#FF5103"/>
<path d="M75.4839 60.9668C67.4797 60.9668 60.9678 67.4787 60.9678 75.4829C60.9678 83.4871 67.4797 89.9991 75.4839 89.9991C83.4881 89.9991 90 83.4871 90 75.4829C90 67.4787 83.4881 60.9668 75.4839 60.9668ZM78.3871 69.6765C78.3871 71.2776 77.085 72.5797 75.4839 72.5797C73.8828 72.5797 72.5807 71.2776 72.5807 69.6765C72.5807 68.0753 73.8828 66.7732 75.4839 66.7732C77.085 66.7732 78.3871 68.0753 78.3871 69.6765ZM79.8387 86.2408C78.4931 86.7881 77.0241 87.0958 75.4839 87.0958C73.9437 87.0958 72.4747 86.7881 71.1291 86.2408V82.741C71.1291 80.34 73.0829 78.3862 75.4839 78.3862C77.8849 78.3862 79.8387 80.34 79.8387 82.741V86.2408ZM82.742 84.5337V82.741C82.742 78.7389 79.486 75.4829 75.4839 75.4829C71.4818 75.4829 68.2258 78.7389 68.2258 82.741V84.5337C65.5752 82.4028 63.871 79.141 63.871 75.4829C63.871 69.18 68.9201 64.037 75.1854 63.8776C72.1214 64.0335 69.6775 66.5744 69.6775 69.6765C69.6775 72.8787 72.2816 75.4829 75.4839 75.4829C78.6862 75.4829 81.2904 72.8787 81.2904 69.6765C81.2904 66.5744 78.8464 64.0335 75.7824 63.8776C82.0477 64.037 87.0968 69.18 87.0968 75.4829C87.0968 79.141 85.3926 82.4042 82.742 84.5337Z" fill="#FF5103"/>
<path d="M14.5161 29.0323C22.5203 29.0323 29.0323 22.5203 29.0323 14.5161C29.0323 6.51194 22.5203 0 14.5161 0C6.51194 0 0 6.51194 0 14.5161C0 22.5203 6.51194 29.0323 14.5161 29.0323ZM18.871 25.274C17.5253 25.8213 16.0563 26.129 14.5161 26.129C12.976 26.129 11.5069 25.8213 10.1613 25.274V21.7742C10.1613 19.3732 12.1152 17.4194 14.5161 17.4194C16.9171 17.4194 18.871 19.3732 18.871 21.7742V25.274ZM17.4194 8.70968C17.4194 10.3108 16.1173 11.6129 14.5161 11.6129C12.915 11.6129 11.6129 10.3108 11.6129 8.70968C11.6129 7.10855 12.915 5.80645 14.5161 5.80645C16.1173 5.80645 17.4194 7.10855 17.4194 8.70968ZM14.2176 2.91085C11.1537 3.06671 8.70968 5.60758 8.70968 8.70968C8.70968 11.9119 11.3139 14.5161 14.5161 14.5161C17.7184 14.5161 20.3226 11.9119 20.3226 8.70968C20.3226 5.60758 17.8786 3.06671 14.8146 2.91085C21.08 3.07016 26.129 8.21323 26.129 14.5161C26.129 18.1742 24.4248 21.4374 21.7742 23.5669V21.7742C21.7742 17.7721 18.5182 14.5161 14.5161 14.5161C10.514 14.5161 7.25806 17.7721 7.25806 21.7742V23.5669C4.60742 21.4374 2.90323 18.1742 2.90323 14.5161C2.90323 8.21323 7.9523 3.07016 14.2176 2.91085Z" fill="#FF5103"/>
<path d="M14.5161 60.9668C6.51194 60.9668 0 67.4787 0 75.4829C0 83.4871 6.51194 89.9991 14.5161 89.9991C22.5203 89.9991 29.0323 83.4871 29.0323 75.4829C29.0323 67.4787 22.5203 60.9668 14.5161 60.9668ZM17.4194 69.6765C17.4194 71.2776 16.1173 72.5797 14.5161 72.5797C12.915 72.5797 11.6129 71.2776 11.6129 69.6765C11.6129 68.0753 12.915 66.7732 14.5161 66.7732C16.1173 66.7732 17.4194 68.0753 17.4194 69.6765ZM18.871 86.2408C17.5253 86.7881 16.0563 87.0958 14.5161 87.0958C12.976 87.0958 11.5069 86.7881 10.1613 86.2408V82.741C10.1613 80.34 12.1152 78.3862 14.5161 78.3862C16.9171 78.3862 18.871 80.34 18.871 82.741V86.2408ZM21.7742 84.5337V82.741C21.7742 78.7389 18.5182 75.4829 14.5161 75.4829C10.514 75.4829 7.25806 78.7389 7.25806 82.741V84.5337C4.60742 82.4042 2.90323 79.141 2.90323 75.4829C2.90323 69.18 7.9523 64.037 14.2176 63.8776C11.1537 64.0335 8.70968 66.5744 8.70968 69.6765C8.70968 72.8787 11.3139 75.4829 14.5161 75.4829C17.7184 75.4829 20.3226 72.8787 20.3226 69.6765C20.3226 66.5744 17.8786 64.0335 14.8146 63.8776C21.08 64.037 26.129 69.18 26.129 75.4829C26.129 79.141 24.4248 82.4042 21.7742 84.5337Z" fill="#FF5103"/>
</g>
<defs>
<clipPath id="clip0_561_190">
<rect width="90" height="90" fill="white"/>
</clipPath>
</defs>
</svg>
