<svg width="120" height="120" viewBox="0 0 120 120" fill="none" xmlns="http://www.w3.org/2000/svg">
<g clip-path="url(#clip0_561_169)">
<path d="M74.7295 43.8534C66.553 35.0456 52.7337 34.5319 43.9259 42.7084C35.1181 50.8849 34.6045 64.7042 42.781 73.512C49.3383 80.5756 59.5202 82.2911 67.8409 78.4814L70.4462 81.2879L68.4494 83.1416L70.3031 85.1383L72.2999 83.2847L78.7877 90.2734C81.343 93.026 85.6612 93.1865 88.4138 90.6312C91.1664 88.0759 91.3269 83.7577 88.7716 81.0051L82.2838 74.0164L84.2806 72.1627L82.4269 70.1659L80.4301 72.0196L77.8248 69.2131C82.2416 61.1982 81.2868 50.917 74.7295 43.8534ZM86.7748 82.8588C88.3078 84.5101 88.2115 87.1015 86.5601 88.6344C84.9088 90.1674 82.3175 90.0711 80.7845 88.4198L74.2967 81.431L80.287 75.87L86.7748 82.8588ZM78.4333 73.8733L72.443 79.4342L70.3187 77.1459C71.4625 76.4298 72.5602 75.6079 73.5845 74.657C74.6089 73.706 75.51 72.6724 76.309 71.5849L78.4333 73.8733ZM71.7308 72.6602C64.0233 79.8153 51.9329 79.3659 44.7777 71.6583C37.6226 63.9508 38.072 51.8604 45.7796 44.7052C53.4872 37.5501 65.5776 37.9995 72.7327 45.7071C79.8878 53.4146 79.4384 65.505 71.7308 72.6602Z" fill="#875EF8"/>
<path d="M47.633 46.7009C41.0267 52.8338 40.6415 63.1972 46.7743 69.8036C52.9072 76.4099 63.2706 76.7952 69.877 70.6623C76.4833 64.5295 76.8685 54.166 70.7357 47.5596C64.6029 40.9533 54.2394 40.5681 47.633 46.7009ZM68.0233 68.6655C62.5182 73.7761 53.8816 73.4551 48.7711 67.9499C43.6606 62.4448 43.9816 53.8083 49.4867 48.6977C54.9918 43.5872 63.6284 43.9082 68.7389 49.4133C73.8495 54.9184 73.5284 63.555 68.0233 68.6655Z" fill="#875EF8"/>
<path d="M38.3648 36.7179C40.5672 34.6733 40.6956 31.2195 38.651 29.017C36.6064 26.8146 33.1526 26.6862 30.9501 28.7308C28.7477 30.7754 28.6193 34.2292 30.6639 36.4317C32.7085 38.6341 36.1623 38.7625 38.3648 36.7179ZM32.8038 30.7276C33.905 29.7053 35.6319 29.7695 36.6542 30.8707C37.6765 31.9719 37.6123 33.6989 36.5111 34.7212C35.4099 35.7435 33.6829 35.6793 32.6606 34.578C31.6384 33.4768 31.7025 31.7499 32.8038 30.7276Z" fill="#875EF8"/>
<path d="M41.217 37.7876L39.2202 39.6413L41.0739 41.638L43.0707 39.7844L41.217 37.7876Z" fill="#875EF8"/>
<path d="M27.0673 61.3597C28.1336 60.3698 28.7514 59.023 28.8045 57.5685C28.8596 56.114 28.3434 54.7251 27.3536 53.6588C26.3637 52.5925 25.0169 51.9747 23.5624 51.9216C20.6524 51.8125 18.0217 54.2547 17.9155 57.1638C17.8605 58.6182 18.3766 60.0072 19.3664 61.0734C20.3563 62.1397 21.7031 62.7575 23.1576 62.8107C24.6121 62.8657 26.001 62.3495 27.0673 61.3597ZM20.6377 57.2649C20.6648 56.5372 20.9732 55.8643 21.5063 55.3693C22.0395 54.8744 22.7335 54.6168 23.4612 54.6439C24.1889 54.6709 24.8619 54.9793 25.3568 55.5125C25.8517 56.0456 26.1093 56.7396 26.0823 57.4673C26.0282 58.9228 24.7143 60.1425 23.2588 60.0884C22.5311 60.0613 21.8582 59.7529 21.3632 59.2198C20.8683 58.6866 20.6107 57.9927 20.6377 57.2649Z" fill="#875EF8"/>
<path d="M34.2001 59.1334L34.3013 56.4108L31.5786 56.3096L31.4774 59.0322L34.2001 59.1334Z" fill="#875EF8"/>
<path d="M29.0898 78.7855C26.8873 80.8301 26.7589 84.2839 28.8035 86.4864C30.8481 88.6888 34.302 88.8172 36.5044 86.7726C38.7069 84.728 38.8352 81.2742 36.7906 79.0717C34.7461 76.8693 31.2922 76.7409 29.0898 78.7855ZM34.6507 84.7758C33.5495 85.7981 31.8226 85.7339 30.8003 84.6327C29.778 83.5315 29.8422 81.8046 30.9434 80.7823C32.0446 79.76 33.7716 79.8242 34.7939 80.9254C35.8162 82.0266 35.752 83.7535 34.6507 84.7758Z" fill="#875EF8"/>
<path d="M39.8571 74.3677L37.8604 76.2213L39.714 78.2181L41.7108 76.3645L39.8571 74.3677Z" fill="#875EF8"/>
<path d="M51.9951 93.8747C51.94 95.3292 52.4562 96.7181 53.446 97.7844C54.4359 98.8507 55.7827 99.4685 57.2372 99.5216C58.6917 99.5766 60.0806 99.0605 61.1469 98.0706C62.2132 97.0808 62.831 95.734 62.8841 94.2794C62.9392 92.825 62.423 91.436 61.4332 90.3697C60.4433 89.3035 59.0965 88.6856 57.642 88.6325C54.733 88.5225 52.1023 90.9647 51.9951 93.8747ZM60.1619 94.1782C60.1078 95.6337 58.7939 96.8534 57.3384 96.7993C56.6107 96.7723 55.9377 96.4639 55.4428 95.9307C54.9479 95.3976 54.6903 94.7036 54.7173 93.9759C54.7444 93.2481 55.0528 92.5752 55.5859 92.0803C56.1191 91.5853 56.813 91.3277 57.5408 91.3548C58.2685 91.3818 58.9414 91.6903 59.4364 92.2234C59.9313 92.7565 60.1889 93.4505 60.1619 94.1782Z" fill="#875EF8"/>
<path d="M56.3857 85.8584L59.1084 85.9596L59.2096 83.237L56.4869 83.1358L56.3857 85.8584Z" fill="#875EF8"/>
<path d="M88.706 59.7966C88.651 61.251 89.1671 62.64 90.157 63.7063C91.1468 64.7725 92.4936 65.3904 93.9482 65.4435C95.4026 65.4985 96.7916 64.9824 97.8579 63.9925C98.9241 63.0026 99.542 61.6558 99.5951 60.2013C99.6501 58.7468 99.134 57.3579 98.1441 56.2916C97.1542 55.2253 95.8074 54.6075 94.3529 54.5544C91.443 54.4453 88.8122 56.8875 88.706 59.7966ZM96.8728 60.1001C96.8187 61.5556 95.5048 62.7753 94.0493 62.7212C93.3216 62.6941 92.6487 62.3857 92.1537 61.8526C91.6588 61.3195 91.4012 60.6255 91.4283 59.8977C91.4553 59.17 91.7637 58.4971 92.2969 58.0022C92.83 57.5072 93.524 57.2496 94.2517 57.2767C94.9795 57.3037 95.6524 57.6121 96.1473 58.1453C96.6422 58.6784 96.8998 59.3724 96.8728 60.1001Z" fill="#875EF8"/>
<path d="M83.3165 58.2213L83.2153 60.944L85.938 61.0452L86.0392 58.3225L83.3165 58.2213Z" fill="#875EF8"/>
<path d="M81.0063 30.5921C78.8038 32.6367 78.6754 36.0906 80.72 38.293C82.7646 40.4955 86.2185 40.6239 88.4209 38.5793C90.6234 36.5347 90.7517 33.0808 88.7071 30.8784C86.6626 28.6759 83.2087 28.5475 81.0063 30.5921ZM86.5672 36.5825C85.466 37.6048 83.7391 37.5406 82.7168 36.4394C81.6945 35.3381 81.7587 33.6112 82.8599 32.5889C83.9611 31.5666 85.6881 31.6308 86.7104 32.732C87.7327 33.8333 87.6685 35.5602 86.5672 36.5825Z" fill="#875EF8"/>
<path d="M77.7961 39.147L75.7993 41.0006L77.653 42.9974L79.6498 41.1438L77.7961 39.147Z" fill="#875EF8"/>
<path d="M63.7783 27.2816C64.8445 26.2917 65.4624 24.9449 65.5155 23.4904C65.5705 22.0359 65.0544 20.647 64.0645 19.5807C63.0747 18.5144 61.7279 17.8966 60.2733 17.8435C57.3634 17.7343 54.7326 20.1765 54.6264 23.0856C54.5714 24.5401 55.0875 25.929 56.0774 26.9953C57.0672 28.0616 58.414 28.6794 59.8686 28.7325C61.323 28.7876 62.711 28.2723 63.7783 27.2816ZM57.3487 23.1868C57.3757 22.4591 57.6841 21.7861 58.2173 21.2912C58.7504 20.7963 59.4444 20.5387 60.1721 20.5657C60.8999 20.5928 61.5728 20.9012 62.0677 21.4343C62.5627 21.9675 62.8203 22.6614 62.7932 23.3892C62.7391 24.8446 61.4252 26.0644 59.9698 26.0103C59.242 25.9832 58.5691 25.6748 58.0742 25.1417C57.5792 24.6085 57.3216 23.9145 57.3487 23.1868Z" fill="#875EF8"/>
<path d="M61.126 31.4983L58.4033 31.3971L58.3021 34.1198L61.0248 34.221L61.126 31.4983Z" fill="#875EF8"/>
<path d="M63.729 52.2065C62.7327 51.4417 61.5987 50.933 60.4154 50.6895L60.5212 47.8421L57.799 47.7409L57.6931 50.5883C56.495 50.7433 55.3264 51.1664 54.2761 51.8552L52.339 49.7685L50.3423 51.6222L52.2793 53.7088C51.5145 54.7051 51.0058 55.839 50.7623 57.0224L47.9149 56.9165L47.8137 59.6388L50.6611 59.7446C50.8161 60.9428 51.2392 62.1114 51.928 63.1617L49.8413 65.0987L51.695 67.0955L53.7816 65.1585C54.7779 65.9233 55.9118 66.432 57.0952 66.6755L56.9893 69.5229L59.7116 69.6241L59.8174 66.7767C61.0156 66.6217 62.1842 66.1985 63.2345 65.5098L65.1716 67.5965L67.1683 65.7428L65.2313 63.6562C65.9961 62.6599 66.5048 61.5259 66.7483 60.3426L69.5957 60.4484L69.6969 57.7262L66.8495 57.6203C66.6945 56.4222 66.2714 55.2536 65.5826 54.2033L67.6693 52.2662L65.8156 50.2694L63.729 52.2065ZM62.4626 62.6761C60.2602 64.7206 56.8063 64.5923 54.7617 62.3898C52.7171 60.1874 52.8455 56.7335 55.048 54.6889C57.2504 52.6443 60.7043 52.7727 62.7489 54.9752C64.7934 57.1776 64.6651 60.6315 62.4626 62.6761Z" fill="#875EF8"/>
</g>
<defs>
<clipPath id="clip0_561_169">
<rect width="84.4612" height="84.4612" fill="white" transform="translate(0 57.4635) rotate(-42.8713)"/>
</clipPath>
</defs>
</svg>
