<svg width="86" height="86" viewBox="0 0 86 86" fill="none" xmlns="http://www.w3.org/2000/svg">
<path fill-rule="evenodd" clip-rule="evenodd" d="M10.75 14.3327C8.771 14.3327 7.16667 15.937 7.16667 17.916V57.3327C7.16667 59.3117 8.771 60.916 10.75 60.916H75.25C77.2291 60.916 78.8333 59.3117 78.8333 57.3327V17.916C78.8333 15.937 77.2291 14.3327 75.25 14.3327H10.75ZM10.75 7.16602H75.25C81.1872 7.16602 86 11.979 86 17.916V57.3327C86 63.2699 81.1872 68.0827 75.25 68.0827H10.75C4.81295 68.0827 0 63.2699 0 57.3327V17.916C0 11.979 4.81295 7.16602 10.75 7.16602ZM57.3333 71.666C59.3124 71.666 60.9167 73.2703 60.9167 75.2493C60.9167 77.2284 59.3124 78.8327 57.3333 78.8327H28.6667C26.6877 78.8327 25.0833 77.2284 25.0833 75.2493C25.0833 73.2703 26.6877 71.666 28.6667 71.666H57.3333Z" fill="#875EF8"/>
</svg>
