<svg width="94" height="94" viewBox="0 0 94 94" fill="none" xmlns="http://www.w3.org/2000/svg">
<path d="M67.6614 64.0187L65.3991 63.5847C64.3385 63.3811 63.5035 62.687 63.1087 61.6797C62.7123 60.6739 62.8533 59.5976 63.4925 58.7265L64.9135 56.7901C65.3709 56.1666 65.3051 55.3018 64.7568 54.755L61.6877 51.6875C61.1566 51.1564 60.3216 51.078 59.7012 51.4979L57.7945 52.7888C56.9015 53.3983 55.8174 53.497 54.8257 53.063C53.8356 52.6322 53.1729 51.7705 53.0084 50.7005L52.6433 48.327C52.5274 47.564 51.8694 47 51.097 47H46.7574C46.0069 47 45.3599 47.5342 45.2189 48.2721L44.658 51.194C44.4591 52.2311 43.7838 53.0583 42.8078 53.4625C41.8302 53.8698 40.768 53.7586 39.8938 53.1664L37.431 51.4995C36.809 51.0796 35.9771 51.1579 35.4445 51.689L32.3754 54.7566C31.827 55.3033 31.7612 56.1666 32.2187 56.7917L33.6397 58.7281C34.2789 59.5991 34.4199 60.6754 34.0235 61.6812C33.6287 62.6886 32.7937 63.3826 31.733 63.5863L29.4708 64.0203C28.7344 64.1613 28.2002 64.8067 28.2002 65.5587V69.8984C28.2002 70.6708 28.7642 71.3288 29.5287 71.4463L31.9022 71.8113C32.9723 71.9758 33.8324 72.6385 34.2648 73.6286C34.6972 74.6203 34.5969 75.7013 33.9906 76.5975L32.6997 78.5041C32.2782 79.1245 32.3581 79.9595 32.8892 80.4906L35.9568 83.5597C36.502 84.1049 37.3652 84.1723 37.9919 83.7164L39.9283 82.2954C40.7978 81.6562 41.8788 81.5152 42.8814 81.9116C43.8888 82.3064 44.5828 83.1414 44.7865 84.2021L45.2205 86.4643C45.3615 87.1991 46.0069 87.7333 46.7589 87.7333H51.0986C51.871 87.7333 52.529 87.1693 52.6465 86.4048L52.9034 84.7363C53.0679 83.6584 53.7682 82.7686 54.7724 82.3518C55.7798 81.9351 56.9047 82.0714 57.782 82.7153L59.1434 83.7148C59.7685 84.1723 60.6333 84.1049 61.1785 83.5582L64.2461 80.4891C64.7772 79.958 64.8571 79.1245 64.4356 78.5025L63.1447 76.5959C62.5384 75.7013 62.4381 74.6188 62.8705 73.6271C63.3014 72.6369 64.163 71.9742 65.2331 71.8097L67.6066 71.4447C68.3695 71.3272 68.9335 70.6692 68.9335 69.8968V65.5572C68.9335 64.8067 68.3993 64.1613 67.6614 64.0187ZM65.8002 68.5542L64.7552 68.7156C62.634 69.0414 60.8558 70.4107 59.9988 72.3769C59.1403 74.3446 59.3471 76.5787 60.5503 78.3537L61.1159 79.1887L59.9127 80.3919L59.6354 80.1883C57.865 78.8911 55.6028 78.6185 53.5739 79.4566C51.5467 80.2964 50.1398 82.0918 49.8061 84.2585L49.7544 84.6H48.053L47.8634 83.6083C47.4577 81.4996 46.0226 79.7747 44.0267 78.9913C42.0276 78.208 39.8029 78.4994 38.0733 79.7653L37.2211 80.3904L36.0179 79.1872L36.5834 78.3521C37.7866 76.5755 37.9919 74.3415 37.1349 72.3753C36.2779 70.4091 34.4982 69.0399 32.3785 68.714L31.3335 68.5542V66.8528L32.3252 66.6632C34.434 66.2575 36.1589 64.8224 36.9422 62.8265C37.7255 60.829 37.4357 58.6043 36.1683 56.8731L35.5432 56.0209L36.7464 54.8177L38.1391 55.7608C39.875 56.9389 42.073 57.1598 44.0094 56.3577C45.9474 55.554 47.3417 53.8448 47.7381 51.7846L48.053 50.1333H49.7544L49.9158 51.1783C50.2416 53.2996 51.6109 55.0777 53.5771 55.9347C55.5448 56.7932 57.7789 56.5864 59.5539 55.3832L60.3889 54.8177L61.5921 56.0209L60.967 56.8731C59.698 58.6027 59.4098 60.8274 60.1931 62.8265C60.9764 64.8224 62.7029 66.2575 64.8101 66.6632L65.8002 66.8528V68.5542Z" fill="#FF5103"/>
<path d="M48.5667 59.5352C44.2474 59.5352 40.7334 63.0492 40.7334 67.3685C40.7334 71.6878 44.2474 75.2018 48.5667 75.2018C52.886 75.2018 56.4001 71.6878 56.4001 67.3685C56.4001 63.0492 52.886 59.5352 48.5667 59.5352ZM48.5667 72.0685C45.9755 72.0685 43.8667 69.9598 43.8667 67.3685C43.8667 64.7772 45.9755 62.6685 48.5667 62.6685C51.158 62.6685 53.2667 64.7772 53.2667 67.3685C53.2667 69.9598 51.158 72.0685 48.5667 72.0685Z" fill="#875EF8"/>
<path d="M79.8624 31.6382C79.0336 17.5382 67.4105 6.26758 53.3983 6.26758C44.8913 6.26758 36.6537 10.4396 31.5511 17.2468C31.4336 17.1857 31.3098 17.1434 31.1908 17.087C30.8806 16.9366 30.5657 16.794 30.2445 16.6655C30.0659 16.595 29.8873 16.5308 29.7071 16.4681C29.3891 16.3569 29.0664 16.2582 28.7374 16.1689C28.5572 16.1203 28.3786 16.0702 28.1969 16.0295C27.8444 15.9496 27.484 15.8885 27.1206 15.8336C26.9623 15.8101 26.8072 15.7788 26.6474 15.7616C26.1273 15.7036 25.6009 15.6676 25.0667 15.6676C17.2913 15.6676 10.9667 21.9922 10.9667 29.7676C10.9667 29.9697 10.9792 30.1671 10.9933 30.3645C4.47597 33.9161 0 41.3593 0 48.8088C0 59.9055 9.02713 68.9342 20.1238 68.9342C20.9902 68.9342 21.6905 68.2339 21.6905 67.3676C21.6905 66.5012 20.9902 65.8009 20.1238 65.8009C10.7552 65.8009 3.13333 58.1791 3.13333 48.8088C3.13333 42.3009 7.37117 35.5454 13.2117 32.7458L14.1 32.3212V31.3342C14.1 31.1462 14.1125 30.9551 14.1235 30.7624L14.1407 30.4726L14.1204 30.1686C14.111 30.0355 14.1 29.9023 14.1 29.7676C14.1 23.7218 19.0209 18.8009 25.0667 18.8009C25.5508 18.8009 26.0286 18.8432 26.5033 18.9059C26.6255 18.9215 26.7477 18.9419 26.8683 18.9623C27.2866 19.0312 27.6987 19.1221 28.1044 19.2396C28.1593 19.2552 28.2157 19.2662 28.2705 19.2819C28.717 19.4182 29.1525 19.5905 29.5787 19.7848C29.6899 19.8349 29.798 19.8897 29.9077 19.943C30.2837 20.1294 30.6518 20.3331 31.0075 20.5634C34.0264 22.5186 36.0333 25.9104 36.0333 29.7676C36.0333 30.6339 36.7336 31.3342 37.6 31.3342C38.4664 31.3342 39.1667 30.6339 39.1667 29.7676C39.1667 25.453 37.2146 21.5911 34.1533 19.003C38.645 13.128 46.0412 9.40091 53.3983 9.40091C65.5321 9.40091 75.6105 19.0124 76.6617 31.1588C75.0621 31.046 72.6636 30.988 70.265 31.353C69.4096 31.4831 68.8221 32.2821 68.9521 33.1375C69.0696 33.913 69.737 34.4691 70.4984 34.4691C70.5768 34.4691 70.6567 34.4629 70.735 34.4503C74.2255 33.9239 77.8602 34.4174 78.0733 34.4472C85.3677 35.8337 90.8667 42.5531 90.8667 50.0904C90.8667 58.7525 83.8182 65.8009 75.1561 65.8009C74.2898 65.8009 73.5895 66.5012 73.5895 67.3676C73.5895 68.2339 74.2898 68.9342 75.1561 68.9342C85.5463 68.9342 94 60.4805 94 50.0904C94 41.4909 88.0044 33.7782 79.8624 31.6382Z" fill="#FF5103"/>
</svg>
