<svg width="77" height="76" viewBox="0 0 77 76" fill="none" xmlns="http://www.w3.org/2000/svg">
<path d="M41.0668 54.4661C41.2272 53.8328 41.2272 53.0411 41.2272 52.2495C41.2272 51.4578 41.2272 50.8245 41.0668 50.0328L45.5584 46.8661C46.0397 46.5495 46.2001 45.9161 45.8793 45.4411L41.548 38.1578C41.2272 37.6828 40.7459 37.5245 40.2647 37.6828L35.2918 40.0578C34.1688 39.1078 32.8855 38.4745 31.4418 37.8411L30.9605 32.4578C30.9605 31.9828 30.4793 31.5078 29.998 31.5078H21.4959C21.0147 31.5078 20.5334 31.9828 20.5334 32.4578L19.8918 37.9995C18.448 38.4745 17.3251 39.2661 16.0418 40.2161L11.0689 37.9995C10.5876 37.8411 9.94594 37.9995 9.78552 38.4745L5.45427 45.7578C5.13344 46.2328 5.29385 46.8661 5.7751 47.1828L10.2668 50.3495C10.1064 50.9828 10.1064 51.7745 10.1064 52.5661C10.1064 53.3578 10.1064 53.9911 10.2668 54.7828L5.7751 57.9495C5.29385 58.2661 5.13344 58.8995 5.45427 59.3745L9.78552 66.6578C10.1064 67.1328 10.5876 67.2911 11.0689 67.1328L16.0418 64.9161C17.1647 65.8661 18.448 66.4995 19.8918 67.1328L20.373 72.5161C20.373 72.9911 20.8543 73.4661 21.3355 73.4661H29.8376C30.3188 73.4661 30.8001 72.9911 30.8001 72.5161L31.2814 67.1328C32.7251 66.6578 33.848 65.8661 35.1314 64.9161L40.1043 67.1328C40.5855 67.2911 41.2272 67.1328 41.3876 66.6578L45.7188 59.3745C46.0397 58.8995 45.8793 58.2661 45.398 57.9495L41.0668 54.4661ZM25.6668 60.1661C21.1751 60.1661 17.6459 56.6828 17.6459 52.2495C17.6459 47.8161 21.1751 44.3328 25.6668 44.3328C30.1584 44.3328 33.6876 47.8161 33.6876 52.2495C33.6876 56.6828 30.1584 60.1661 25.6668 60.1661Z" fill="#E65100"/>
<path d="M67.2147 24.2243C67.3751 23.4327 67.3751 22.7993 67.3751 22.166C67.3751 21.5327 67.3751 20.8993 67.2147 20.1077L71.2251 17.2577C71.7064 16.941 71.7064 16.466 71.546 15.991L67.5355 9.18268C67.2147 8.70768 66.7335 8.54935 66.2522 8.86602L61.6001 10.9243C60.4772 10.1327 59.3543 9.49935 58.071 8.86602L57.5897 3.95768C57.7501 3.48268 57.4293 3.16602 56.948 3.16602H49.0876C48.6064 3.16602 48.1251 3.48268 48.1251 3.95768L47.6439 8.86602C46.3605 9.34102 45.2376 9.97435 44.1147 10.9243L39.4626 8.86602C38.9814 8.70768 38.5001 8.86602 38.1793 9.18268L34.1689 15.991C33.848 16.466 34.0085 16.941 34.4897 17.2577L38.5001 20.1077V22.166C38.5001 22.7993 38.5001 23.4327 38.6605 24.2243L34.6501 27.0743C34.1689 27.391 34.1689 27.866 34.3293 28.341L38.3397 35.1493C38.6605 35.6244 39.1418 35.7827 39.623 35.466L44.2751 33.4077C45.398 34.1994 46.521 34.8327 47.8043 35.466L48.2855 40.3744C48.2855 40.8493 48.7668 41.166 49.248 41.166H57.1085C57.5897 41.166 58.071 40.8493 58.071 40.3744L58.5522 35.466C59.8355 34.991 60.9585 34.3577 62.0814 33.4077L66.7335 35.466C67.2147 35.6244 67.696 35.466 68.0168 35.1493L72.0272 28.341C72.348 27.866 72.1876 27.391 71.7064 27.0743L67.2147 24.2243ZM52.9376 30.0827C48.446 30.0827 44.9168 26.5993 44.9168 22.166C44.9168 17.7327 48.446 14.2493 52.9376 14.2493C57.4293 14.2493 60.9585 17.7327 60.9585 22.166C60.9585 26.5993 57.4293 30.0827 52.9376 30.0827Z" fill="#875EF8"/>
</svg>
