<svg width="325" height="45" viewBox="0 0 325 45" fill="none" xmlns="http://www.w3.org/2000/svg">
<path d="M317.032 1.74805H317.125V9.41982H299.381C296.176 9.41982 293.748 10.0311 292.093 11.2554C289.84 12.4798 288.114 14.8442 286.918 18.3507C286.654 19.5384 286.522 20.5615 286.522 21.4198C286.522 24.3974 287.595 27.1919 289.743 29.8035C291.151 31.2108 292.472 32.1423 293.704 32.598C295.06 33.2386 296.915 33.557 299.274 33.557H317.123V41.2288H300.118C295.77 41.2288 292.549 40.6798 290.453 39.5854C285.77 37.4661 282.417 33.9962 280.393 29.1739C279.407 26.7637 278.915 24.1979 278.915 21.4747C278.915 15.5946 281.158 10.571 285.647 6.40565C288.587 4.10522 291.246 2.74362 293.621 2.3227C294.836 1.93838 297.115 1.74805 300.46 1.74805H315.072C315.729 1.74805 316.876 1.81759 317.495 1.9457C320.623 2.59538 321.938 3.34572 322.811 4.86654C323.635 6.30133 324.374 7.46162 324.687 9.40884C325 11.3561 325 11.68 325 12.9775C325 15.3567 324.936 17.2655 324.061 19.4671C323.545 20.7646 322.623 22.2452 321.247 23.0358C320.017 23.7422 318.745 24.3333 316.99 24.9098C316.247 25.1532 315.842 25.2831 314.997 25.2831H297.239V17.6937H317.122L316.869 24.3333" fill="white"/>
<path d="M0 1.19922H7.74315V41.229H0V1.19922Z" fill="white"/>
<path d="M47.8568 9.14917C48.6254 10.2234 49.1781 11.1421 49.5185 11.9016C50.0181 12.8094 50.4921 14.0337 50.9386 15.571C51.4749 17.4249 51.7421 19.9449 51.7421 23.133V41.229H43.9989V22.271C43.9989 15.8967 41.2208 11.6344 35.6665 9.48408C34.3982 9.11257 33.2818 8.91858 32.3174 8.90028C31.3529 8.91858 30.2457 9.11257 28.9957 9.48408C23.4414 11.6344 20.6633 15.8967 20.6633 22.271V41.229H12.8945V23.133C12.8945 19.9468 13.1617 17.4249 13.6979 15.571C14.1445 14.0337 14.6185 12.8094 15.1181 11.9016C15.4567 11.1238 16.0203 10.207 16.8055 9.14917C20.9671 3.8492 26.1371 1.19922 32.3174 1.19922C38.4976 1.19922 43.6768 3.8492 47.8568 9.14917Z" fill="white"/>
<path d="M93.999 2.14258H102.374L115.885 30.5329L129.605 2.14258H137.771L117.971 44.6777H113.797L93.999 2.14258Z" fill="white"/>
<path d="M158.84 1.14441H176.683V41.2291H168.94V8.95527L162.028 8.98272H160.368C156.51 8.98272 154.367 9.14926 153.937 9.48234C151.633 10.132 149.686 11.5119 148.097 13.6239C146.382 16.1622 145.524 18.6914 145.524 21.2133C145.524 24.3263 146.686 27.1904 149.007 29.8019C150.56 31.341 151.9 32.2671 153.026 32.5819C154.151 33.1748 156.089 33.4713 158.84 33.4713H164.224V41.2272H157.767C152.98 41.2272 148.935 39.9206 145.63 37.3072C143.236 35.3435 141.639 33.5646 140.835 31.9706C138.835 28.6728 137.834 25.2999 137.834 21.852V20.6844C137.834 15.8657 139.576 11.446 143.059 7.42531C145.165 5.29507 146.889 3.94995 148.229 3.39543C149.193 2.83908 150.524 2.31201 152.22 1.81056C153.739 1.36585 155.945 1.14258 158.838 1.14258L158.84 1.14441Z" fill="white"/>
<path d="M200.772 41.229C194.592 41.229 189.422 38.579 185.261 33.279C184.474 32.2231 183.912 31.3044 183.573 30.5266C183.074 29.6188 182.6 28.3963 182.153 26.8572C181.617 25.0052 181.35 22.4833 181.35 19.2971V1.19922H189.118V20.1572C189.118 26.5333 191.896 30.7956 197.451 32.9441C198.701 33.3156 199.808 33.5096 200.772 33.5279C201.737 33.5096 202.853 33.3156 204.122 32.9441C209.676 30.7956 212.454 26.5333 212.454 20.1572V1.19922H220.197V19.2952C220.197 22.4833 219.93 25.0033 219.394 26.8554C218.947 28.3945 218.473 29.617 217.974 30.5247C217.633 31.2842 217.08 32.2029 216.312 33.2772C212.132 38.5772 206.953 41.2272 200.772 41.2272V41.229ZM196.915 1.19922H204.63V25.4572H196.915V1.19922Z" fill="white"/>
<path d="M224.216 1.19922H231.959V41.229H224.216V1.19922Z" fill="white"/>
<path d="M248.408 1.19922H274.423V9.42735H248.168C246.115 9.42735 244.856 10.4742 244.391 12.5696V13.1534C244.391 14.3942 245.061 15.4319 246.401 16.2664C246.81 16.433 247.241 16.5171 247.687 16.5171H260.895C264.288 16.5171 266.592 16.8777 267.807 17.6006C270.809 18.9914 272.88 21.1125 274.022 23.9657C274.665 25.7262 274.987 27.441 274.987 29.1082C274.987 33.1107 273.182 36.4835 269.575 39.2269C268.503 39.9314 267.271 40.4786 265.878 40.8666C264.842 41.1082 263.118 41.2272 260.708 41.2272H236.167L236.139 32.999H262.502C264.716 32.999 266.127 31.8699 266.735 29.6079L266.788 28.8575C266.788 27.2635 266.028 26.041 264.511 25.1882C263.975 24.8917 263.287 24.7434 262.449 24.7434H247.634C243.758 24.7434 240.524 22.9829 237.936 19.4618C236.811 17.5164 236.249 15.5417 236.249 13.5414V12.458C236.249 8.34393 238.178 5.09184 242.036 2.6999C243.643 1.69884 245.769 1.19922 248.412 1.19922H248.408Z" fill="white"/>
<path d="M75.9399 0.0018301H76.2071C82.0653 0.0018301 87.0761 2.55299 91.2377 7.65531C91.3091 7.74315 91.3786 7.83649 91.4427 7.92982C94.0835 11.784 95.403 15.9749 95.403 20.4989V20.7844C95.403 27.0763 92.9635 32.4257 88.0881 36.8362C88.0186 36.9003 87.9435 36.9625 87.8703 37.0211C84.3053 39.8248 80.3999 41.2267 76.154 41.2267H75.8868C70.0726 41.2267 65.0874 38.7029 60.9313 33.6537C60.8452 33.5494 60.7629 33.4377 60.6897 33.3243C59.2897 31.1959 58.3051 29.2395 57.7322 27.4552C57.0386 25.1657 56.6909 22.922 56.6909 20.7277V20.4422C56.6909 14.2821 59.0371 9.00043 63.7313 4.59904C63.8246 4.5112 63.9253 4.42701 64.0278 4.35015C67.1609 1.97651 70.0269 0.627724 72.6256 0.300136C72.7006 0.290986 72.7738 0.278175 72.8489 0.261704C73.6523 0.0878448 74.6826 0 75.9436 0L75.9399 0.0018301ZM64.3792 20.5575C64.3792 24.0951 65.6511 27.2063 68.1931 29.891C68.2663 29.9679 68.3432 30.0429 68.42 30.1125C70.7168 32.1786 73.1252 33.2126 75.6453 33.2126H76.3938C78.4581 33.2126 80.5591 32.4586 82.6948 30.9506C84.9019 29.2139 86.3971 26.9995 87.1804 24.3092C87.422 23.6266 87.5958 22.4681 87.7038 20.8375C87.7111 20.7295 87.7148 20.6179 87.7129 20.5118C87.6745 17.0675 86.4026 14.0186 83.8954 11.3704C81.5107 9.09925 78.8937 7.96276 76.0461 7.96276C72.7775 7.96276 69.8695 9.39939 67.322 12.2708C67.2286 12.3751 67.1408 12.4886 67.0584 12.6057C66.0446 14.057 65.4004 15.296 65.1258 16.3245C64.6281 17.8142 64.3792 19.227 64.3792 20.5612V20.5575Z" fill="white"/>
<path d="M76 23C77.1046 23 78 22.1046 78 21C78 19.8954 77.1046 19 76 19C74.8954 19 74 19.8954 74 21C74 22.1046 74.8954 23 76 23Z" fill="white" stroke="white" stroke-width="3" stroke-miterlimit="133.33"/>
</svg>
